<?xml version="1.0" encoding="UTF-8" standalone="no"?>
<!-- Created with Inkscape (http://www.inkscape.org/) -->

<svg
   xmlns:dc="http://purl.org/dc/elements/1.1/"
   xmlns:cc="http://creativecommons.org/ns#"
   xmlns:rdf="http://www.w3.org/1999/02/22-rdf-syntax-ns#"
   xmlns:svg="http://www.w3.org/2000/svg"
   xmlns="http://www.w3.org/2000/svg"
   xmlns:sodipodi="http://sodipodi.sourceforge.net/DTD/sodipodi-0.dtd"
   xmlns:inkscape="http://www.inkscape.org/namespaces/inkscape"
   width="11.556067mm"
   height="6.1271319mm"
   viewBox="0 0 11.556067 6.127132"
   version="1.1"
   id="svg1664"
   inkscape:version="0.92.2 (5c3e80d, 2017-08-06)"
   sodipodi:docname="car_shipping_icon_(white).svg">
  <defs
     id="defs1658" />
  <sodipodi:namedview
     id="base"
     pagecolor="#ffffff"
     bordercolor="#666666"
     borderopacity="1.0"
     inkscape:pageopacity="0.0"
     inkscape:pageshadow="2"
     inkscape:zoom="18.274521"
     inkscape:cx="25.984029"
     inkscape:cy="12.79114"
     inkscape:document-units="mm"
     inkscape:current-layer="layer1"
     showgrid="false"
     inkscape:window-width="1366"
     inkscape:window-height="716"
     inkscape:window-x="-8"
     inkscape:window-y="-8"
     inkscape:window-maximized="1" />
  <metadata
     id="metadata1661">
    <rdf:RDF>
      <cc:Work
         rdf:about="">
        <dc:format>image/svg+xml</dc:format>
        <dc:type
           rdf:resource="http://purl.org/dc/dcmitype/StillImage" />
        <dc:title />
      </cc:Work>
    </rdf:RDF>
  </metadata>
  <g
     inkscape:label="Capa 1"
     inkscape:groupmode="layer"
     id="layer1"
     transform="translate(-37.827909,-150.50547)">
    <path
       sodipodi:nodetypes="ccccccccccccccccsccccccssccccccsccccccsccccscsssccccsscccccccccccccccccccccccccccsscccccccccscccc"
       inkscape:connector-curvature="0"
       id="path3748-3-5"
       d="m 42.354057,156.4679 c -0.291339,-0.11603 -0.448724,-0.35794 -0.449735,-0.69017 -0.0012,-0.55069 0.523631,-0.90102 0.936174,-0.62418 0.445519,0.2988 0.40335,1.03152 -0.07373,1.28029 -0.09532,0.0499 -0.32586,0.0686 -0.412756,0.0349 z m 0.30928,-0.54283 c 0.1043,-0.11852 0.08097,-0.26861 -0.05439,-0.35108 -0.192655,-0.11727 -0.374068,0.17841 -0.218567,0.35657 0.131622,0.0911 0.178669,0.0761 0.272887,-0.0137 z m 4.376245,0.50939 c -0.217619,-0.12476 -0.340283,-0.35656 -0.340158,-0.64438 6.27e-4,-0.6258 0.661814,-0.95554 1.051465,-0.52437 0.179255,0.19862 0.242521,0.49505 0.164284,0.77039 -0.113906,0.40098 -0.535146,0.59261 -0.875591,0.39836 z m 0.384411,-0.50727 c 0.04391,-0.0512 0.0801,-0.12102 0.0801,-0.15932 0,-0.0911 -0.144197,-0.25089 -0.227138,-0.25089 -0.0368,0 -0.09956,0.0287 -0.139107,0.0649 -0.102054,0.0923 -0.102054,0.27996 0,0.37191 0.09993,0.0898 0.191594,0.0811 0.286137,-0.0262 z m -6.941124,-0.87295 -0.0087,-0.39985 -0.06862,-0.0137 c -0.10168,-0.0162 -0.164409,-0.0948 -0.164409,-0.20884 0,-0.19663 0.02682,-0.20386 0.750132,-0.20386 h 0.6499 l 0.06737,-0.0773 c 0.08072,-0.0911 0.08608,-0.20299 0.01485,-0.30379 l -0.0524,-0.0749 -0.899919,-0.0137 c -0.494936,0 -0.921465,-0.0137 -0.94784,-0.0137 -0.07024,0 -0.157572,-0.11353 -0.157572,-0.2051 0,-0.0437 0.03019,-0.11478 0.06725,-0.15683 l 0.06725,-0.0773 h 1.591863 1.591863 l 0.06999,-0.0798 c 0.08097,-0.0923 0.07249,-0.21309 -0.02183,-0.30429 -0.05315,-0.0524 -0.212416,-0.0549 -2.490272,-0.0549 -1.338488,0 -2.453568,-0.0137 -2.477971,-0.0212 -0.02433,-0.0137 -0.06263,-0.0599 -0.08521,-0.10979 -0.03618,-0.0798 -0.03618,-0.0998 0,-0.18052 0.02246,-0.0499 0.06088,-0.0998 0.08521,-0.10979 0.02433,-0.0137 1.360682,-0.0212 2.969475,-0.0212 h 2.925124 l 0.05964,-0.0724 c 0.09881,-0.12102 0.06887,-0.27734 -0.06874,-0.36143 -0.04404,-0.0262 -0.666954,-0.0374 -2.372973,-0.0374 -2.206106,0 -2.315221,0 -2.358476,-0.0574 -0.05901,-0.0736 -0.05776,-0.20049 0.0025,-0.28495 0.04803,-0.0674 0.04816,-0.0674 1.590528,-0.0674 0.983059,0 1.569294,-0.0137 1.616228,-0.0337 0.0917,-0.0387 0.114904,-0.0811 0.114904,-0.20074 0,-0.2318 -0.01697,-0.23517 -1.157748,-0.23517 -0.93182,0 -1.000762,0 -1.043131,-0.0561 -0.06375,-0.0811 -0.05751,-0.23393 0.01248,-0.30629 0.05577,-0.0574 0.145071,-0.0599 2.671798,-0.0674 l 2.169041,-0.0137 v 2.0548 2.05517 h 0.386706 0.109414 l 0.0087,-1.5449 0.0087,-1.54491 1.019501,-0.0137 0.851774,-0.0137 0.288408,0.33761 c 0.15862,0.18589 0.536456,0.63415 0.839648,0.99645 l 0.551252,0.65861 8.9e-4,0.90252 8.59e-4,0.90251 -0.538352,-0.0137 -0.538352,-0.0137 -0.03655,-0.14123 c -0.08583,-0.33161 -0.379969,-0.61893 -0.705217,-0.68917 -0.443997,-0.0973 -0.905846,0.20872 -1.038716,0.68543 l -0.04042,0.14497 -1.455937,0.0137 c -1.155615,0.0137 -1.455912,0 -1.455925,-0.0299 -1.2e-5,-0.0225 -0.03568,-0.12476 -0.07897,-0.22756 -0.332396,-0.7926 -1.313784,-0.79796 -1.663948,-0.0137 -0.03618,0.0811 -0.0655,0.17653 -0.0655,0.21159 0,0.0624 -0.0151,0.0636 -0.574658,0.0636 h -0.574635 z m 7.969121,-1.41552 c -0.0087,-0.0225 -0.325361,-0.64664 -0.896725,-1.32246 l -0.09956,-0.11727 h -0.592411 -0.592361 v 0.65224 0.81556 h 1.095082 c 0.714338,0 1.091126,-0.0137 1.085948,-0.0262 z"
       style="fill:none;fill-opacity:1;stroke:#ffffff;stroke-width:0.24710001;stroke-miterlimit:4;stroke-dasharray:none;stroke-opacity:1" />
  </g>
</svg>
