<?xml version="1.0" encoding="UTF-8" standalone="no"?>
<!-- Created with Inkscape (http://www.inkscape.org/) -->

<svg
   xmlns:dc="http://purl.org/dc/elements/1.1/"
   xmlns:cc="http://creativecommons.org/ns#"
   xmlns:rdf="http://www.w3.org/1999/02/22-rdf-syntax-ns#"
   xmlns:svg="http://www.w3.org/2000/svg"
   xmlns="http://www.w3.org/2000/svg"
   xmlns:sodipodi="http://sodipodi.sourceforge.net/DTD/sodipodi-0.dtd"
   xmlns:inkscape="http://www.inkscape.org/namespaces/inkscape"
   width="6.5296435mm"
   height="5.9489417mm"
   viewBox="0 0 6.5296435 5.9489417"
   version="1.1"
   id="svg1641"
   inkscape:version="0.92.2 (5c3e80d, 2017-08-06)"
   sodipodi:docname="house_store_icon_(white).svg">
  <defs
     id="defs1635" />
  <sodipodi:namedview
     id="base"
     pagecolor="#ffffff"
     bordercolor="#666666"
     borderopacity="1.0"
     inkscape:pageopacity="0.0"
     inkscape:pageshadow="2"
     inkscape:zoom="24.640906"
     inkscape:cx="13.178728"
     inkscape:cy="12.093424"
     inkscape:document-units="mm"
     inkscape:current-layer="layer1"
     showgrid="false"
     inkscape:window-width="1366"
     inkscape:window-height="716"
     inkscape:window-x="-8"
     inkscape:window-y="-8"
     inkscape:window-maximized="1" />
  <metadata
     id="metadata1638">
    <rdf:RDF>
      <cc:Work
         rdf:about="">
        <dc:format>image/svg+xml</dc:format>
        <dc:type
           rdf:resource="http://purl.org/dc/dcmitype/StillImage" />
        <dc:title />
      </cc:Work>
    </rdf:RDF>
  </metadata>
  <g
     inkscape:label="Capa 1"
     inkscape:groupmode="layer"
     id="layer1"
     transform="translate(-47.909073,-149.51327)">
    <path
       style="fill:#ffffff;fill-opacity:1;stroke:none;stroke-width:0.04310743;stroke-opacity:1"
       d="m 48.679702,155.41044 c -0.0529,-0.0252 -0.135801,-0.1284 -0.184235,-0.22835 -0.08021,-0.16581 -0.08709,-0.25049 -0.07619,-0.95239 0.01033,-0.71463 0.01778,-0.77143 0.09294,-0.786 0.04452,-0.0126 0.09765,0.0126 0.117878,0.0425 0.02031,0.0321 0.03718,0.40242 0.03752,0.82319 5.74e-4,0.91108 0.01274,0.9377 0.408253,0.9377 h 0.23516 l 0.01274,-1.2108 0.01274,-1.21079 0.120931,-0.10442 c 0.117625,-0.10098 0.141332,-0.10442 0.854681,-0.10442 h 0.733752 l 0.126771,0.12725 0.126782,0.12714 -0.01147,0.98257 c -0.01033,0.92244 -0.01652,0.9836 -0.09271,0.99828 -0.04464,0.0126 -0.09765,-0.0126 -0.117878,-0.0425 -0.02019,-0.0321 -0.03718,-0.47803 -0.03752,-0.99106 -5.77e-4,-0.81056 -0.0092,-0.93632 -0.06873,-0.95916 -0.132726,-0.0505 -1.291231,-0.0275 -1.345747,0.0252 -0.03764,0.0379 -0.05175,0.36592 -0.05175,1.20712 v 1.15526 h 2.004512 c 1.947013,0 2.006957,0 2.090687,-0.0861 0.0825,-0.0826 0.08606,-0.14389 0.08606,-1.41803 0,-1.02605 0.01274,-1.33632 0.05393,-1.35158 0.156662,-0.0585 0.161653,-0.0138 0.161653,1.39794 v 1.38016 l -0.146566,0.14653 -0.146564,0.14653 h -2.450654 c -1.655766,0 -2.481853,-0.0184 -2.546811,-0.0493 z m 1.109176,-1.32727 c 0,-0.30958 0.008,-0.34481 0.08147,-0.34481 0.102468,0 0.133943,0.0815 0.133943,0.34481 0,0.26403 -0.03144,0.34481 -0.133943,0.34481 -0.07321,0 -0.08147,-0.0356 -0.08147,-0.34481 z m 1.984041,-0.0425 c -0.121825,-0.12198 -0.140058,-0.23649 -0.123603,-0.77775 0.01985,-0.65129 0.01308,-0.6459 0.809414,-0.6459 0.789759,0 0.778686,-0.0126 0.778686,0.74057 0,0.48204 -0.0092,0.55342 -0.08939,0.65462 -0.08893,0.1136 -0.09248,0.1136 -0.6897,0.1136 -0.540325,0 -0.608909,-0.0126 -0.685501,-0.0838 z m 1.196612,-0.16696 c 0.04108,-0.0252 0.05209,-0.16248 0.04314,-0.52725 l -0.01274,-0.49226 h -0.538845 -0.538833 l -0.01274,0.47137 c -0.008,0.25933 -0.0023,0.49685 0.0092,0.52806 0.01629,0.0425 0.145612,0.0562 0.508058,0.0562 0.267472,0 0.511237,-0.0161 0.541668,-0.0356 z m -4.533938,-0.67837 c -0.05209,-0.13575 -0.02742,-0.48044 0.03855,-0.53506 0.109467,-0.0918 0.193977,0.0218 0.193977,0.26036 0,0.25921 -0.03167,0.34297 -0.129318,0.34297 -0.04234,0 -0.08881,-0.031 -0.103156,-0.0688 z m 0.02559,-0.75916 c -0.02846,-0.0275 -0.05175,-0.15215 -0.05175,-0.27481 0,-0.20299 -0.01274,-0.23145 -0.140093,-0.31923 -0.189296,-0.13 -0.279933,-0.25921 -0.338121,-0.48216 -0.04636,-0.17797 -0.03695,-0.21813 0.19703,-0.83247 0.135239,-0.35491 0.282538,-0.69685 0.327346,-0.75973 0.183375,-0.25761 0.148733,-0.25451 2.778803,-0.25451 2.317228,0 2.407303,0 2.540201,0.0849 0.157959,0.0975 0.174677,0.12955 0.459269,0.87861 0.238522,0.62777 0.258843,0.82376 0.112221,1.08251 -0.289721,0.51165 -0.976048,0.5813 -1.435328,0.14595 l -0.132715,-0.12587 -0.160862,0.15169 c -0.195205,0.18417 -0.55048,0.30006 -0.789196,0.2576 -0.215378,-0.0379 -0.471065,-0.18152 -0.556114,-0.31141 l -0.06804,-0.10442 -0.133679,0.13677 c -0.20186,0.20643 -0.365349,0.2747 -0.660177,0.27528 -0.20832,0 -0.303708,-0.023 -0.461414,-0.11567 -0.109353,-0.0631 -0.228573,-0.15915 -0.26497,-0.2109 l -0.06609,-0.0941 -0.140586,0.13345 c -0.194104,0.1844 -0.390525,0.27516 -0.616459,0.28537 l -0.191659,0.0126 -3.56e-4,0.19622 c -3.43e-4,0.17407 -0.05473,0.2996 -0.129628,0.2996 -0.01423,0 -0.04911,-0.0229 -0.07757,-0.0505 z m 0.487117,-0.7284 c 0.233703,-0.0631 0.445706,-0.27516 0.502838,-0.50201 0.05244,-0.20838 0.182629,-0.25371 0.248527,-0.0861 0.02111,0.0539 0.06219,0.16133 0.09157,0.23982 0.119909,0.32071 0.58503,0.48961 0.915841,0.33253 0.177569,-0.0838 0.275401,-0.21607 0.348494,-0.4692 0.03752,-0.13012 0.07688,-0.18221 0.145245,-0.19208 0.07298,-0.0126 0.09914,0.0126 0.118509,0.10671 0.03982,0.19553 0.163375,0.40941 0.290696,0.50339 0.158177,0.11693 0.483825,0.11693 0.682346,0 0.17392,-0.10212 0.341632,-0.33391 0.341632,-0.47332 0,-0.11957 0.05795,-0.16168 0.172818,-0.12462 0.05267,0.0161 0.08583,0.0643 0.08583,0.12588 0,0.12209 0.154448,0.35433 0.315688,0.47367 0.09352,0.0688 0.185234,0.0907 0.395287,0.0907 0.232291,0 0.290926,-0.0161 0.388884,-0.10672 0.140598,-0.13138 0.236467,-0.30797 0.236467,-0.4358 0,-0.16317 -0.434851,-1.2614 -0.544455,-1.37477 l -0.104189,-0.10671 -1.540126,-0.0126 c -0.847051,0 -1.916559,0.0126 -2.376677,0.0172 -0.825629,0.0218 -0.838193,0.0241 -0.959674,0.13483 -0.166072,0.15089 -0.571341,1.25118 -0.534072,1.44981 0.04165,0.2218 0.251167,0.38175 0.584479,0.44647 0.01147,0 0.09914,-0.0161 0.193989,-0.0425 z"
       id="path3736-5"
       inkscape:connector-curvature="0" />
  </g>
</svg>
