<?xml version="1.0" encoding="UTF-8" standalone="no"?>
<!-- Created with Inkscape (http://www.inkscape.org/) -->

<svg
   xmlns:dc="http://purl.org/dc/elements/1.1/"
   xmlns:cc="http://creativecommons.org/ns#"
   xmlns:rdf="http://www.w3.org/1999/02/22-rdf-syntax-ns#"
   xmlns:svg="http://www.w3.org/2000/svg"
   xmlns="http://www.w3.org/2000/svg"
   xmlns:sodipodi="http://sodipodi.sourceforge.net/DTD/sodipodi-0.dtd"
   xmlns:inkscape="http://www.inkscape.org/namespaces/inkscape"
   width="200mm"
   height="200mm"
   viewBox="0 0 200 200"
   version="1.1"
   id="svg8"
   inkscape:version="0.92.2 (5c3e80d, 2017-08-06)"
   sodipodi:docname="Icono-Facebook.svg"
   inkscape:export-filename="C:\Users\EQUIPO\Pictures\Inkscape\Icono-Facebook.svg.png"
   inkscape:export-xdpi="254"
   inkscape:export-ydpi="254">
  <defs
     id="defs2" />
  <sodipodi:namedview
     id="base"
     pagecolor="#ffffff"
     bordercolor="#666666"
     borderopacity="1.0"
     inkscape:pageopacity="0.0"
     inkscape:pageshadow="2"
     inkscape:zoom="0.51914344"
     inkscape:cx="479.50243"
     inkscape:cy="310.33633"
     inkscape:document-units="mm"
     inkscape:current-layer="layer1"
     showgrid="false"
     inkscape:window-width="1366"
     inkscape:window-height="716"
     inkscape:window-x="-8"
     inkscape:window-y="-8"
     inkscape:window-maximized="1" />
  <metadata
     id="metadata5">
    <rdf:RDF>
      <cc:Work
         rdf:about="">
        <dc:format>image/svg+xml</dc:format>
        <dc:type
           rdf:resource="http://purl.org/dc/dcmitype/StillImage" />
        <dc:title></dc:title>
      </cc:Work>
    </rdf:RDF>
  </metadata>
  <g
     inkscape:label="Capa 1"
     inkscape:groupmode="layer"
     id="layer1"
     transform="translate(-26.670339,-14.9847)">
    <g
       id="g839"
       transform="matrix(0.96952802,0,0,0.96952802,3.3609661,4.0192951)"
       style="fill:#ffffff"
       inkscape:export-xdpi="254"
       inkscape:export-ydpi="254">
      <path
         style="fill:#ffffff;stroke-width:0.25764292"
         d="M 107.18375,214.38568 C 93.435531,211.58739 80.767609,206.18582 69.567889,198.34633 58.050448,190.28444 47.900732,179.46126 40.83873,167.7109 34.707437,157.50911 30.503235,146.59761 28.251595,135.04254 c -1.418889,-7.28154 -1.581256,-9.26569 -1.581256,-19.32322 0,-9.87334 0.128406,-11.52862 1.44911,-18.679132 4.53024,-24.527624 18.363655,-46.665683 38.756161,-62.02275 11.935196,-8.988083 26.718628,-15.476836 41.46754,-18.200951 7.15051,-1.320698 8.80578,-1.449112 18.67912,-1.449112 9.87334,0 11.52859,0.128419 18.67912,1.449112 24.52762,4.530238 46.66567,18.363656 62.02274,38.756159 8.98808,11.935194 15.47683,26.71862 18.20095,41.467542 1.3207,7.150512 1.44912,8.805792 1.44912,18.679132 0,11.14534 -0.37522,14.62105 -2.57271,23.83196 -5.6053,23.49501 -20.11243,44.64692 -40.32484,58.79505 -9.80475,6.86304 -21.69315,12.2634 -33.10997,15.04037 -4.33983,1.0556 -8.03423,1.733 -8.35848,1.5326 -0.1887,-0.11651 -0.25162,-10.85572 -0.20624,-35.19149 l 0.0653,-35.02367 11.59049,-0.12881 c 11.333,-0.12591 11.59273,-0.14023 11.6918,-0.6441 0.0558,-0.28341 1.04932,-6.63035 2.20793,-14.1043 1.41335,-9.11695 2.02131,-13.67435 1.84734,-13.84832 -0.16742,-0.16741 -5.08451,-0.25928 -13.87751,-0.25928 h -13.61824 l 0.0789,-11.40071 0.0792,-11.400709 0.72597,-2.061132 c 0.39928,-1.13364 1.06922,-2.598155 1.48875,-3.254498 1.19286,-1.866149 3.3694,-3.756302 5.44614,-4.729501 3.09128,-1.448645 4.87547,-1.677089 13.13296,-1.68156 4.00908,-0.0013 7.43534,-0.09667 7.61389,-0.210035 0.25512,-0.16196 0.31028,-2.794791 0.25764,-12.295268 l -0.0671,-12.089163 -1.77956,-0.322484 C 162.00498,54.882342 147.6941,54.223499 142.33,55.014851 c -14.74857,2.175833 -24.34437,9.955262 -28.67559,23.247695 -2.01787,6.19272 -2.34802,9.765662 -2.34831,25.411964 l -1.5e-4,12.04482 H 98.841822 c -10.207758,0 -12.516893,0.0635 -12.755561,0.35114 -0.210766,0.25396 -0.272981,4.2295 -0.22478,14.36359 l 0.06664,14.01245 12.624509,0.12882 12.62451,0.12881 0.0653,35.07593 c 0.052,27.92663 -5.2e-4,35.10015 -0.25765,35.19474 -0.17763,0.0653 -1.88815,-0.19976 -3.80114,-0.58913 z"
         id="path830"
         inkscape:connector-curvature="0" />
      <path
         style="fill:#ffffff;stroke-width:0.25764292"
         d="M 108.47198,214.10405 C 90.843449,210.49541 76.181532,203.58114 62.952348,192.63793 59.375603,189.67924 53.062345,183.36597 50.103653,179.78924 39.224358,166.63732 31.918734,151.19161 28.756235,134.65606 c -1.391383,-7.27503 -1.57061,-9.43595 -1.57061,-18.93674 0,-9.50081 0.179227,-11.66173 1.57061,-18.936766 C 31.918734,80.24701 39.224358,64.801303 50.103653,51.649386 53.062345,48.07264 59.375603,41.759382 62.952348,38.800691 77.881332,26.451401 94.800631,19.12214 114.78423,16.347676 c 4.8332,-0.671028 19.64287,-0.671028 24.47608,0 19.98358,2.774464 36.90288,10.103725 51.83187,22.453015 3.57674,2.958691 9.89001,9.271949 12.8487,12.848695 10.87929,13.151917 18.18491,28.597624 21.34742,45.133168 1.39137,7.275036 1.57061,9.435956 1.57061,18.936766 0,9.50079 -0.17924,11.66171 -1.57061,18.93674 -3.16251,16.53555 -10.46813,31.98126 -21.34742,45.13318 -2.95869,3.57673 -9.27196,9.89 -12.8487,12.84869 -12.9403,10.70422 -28.20659,17.99442 -44.45247,21.22753 -1.46779,0.29211 -2.83008,0.53109 -3.02731,0.53109 -0.30465,0 -0.35864,-5.21772 -0.35864,-34.65296 V 145.0906 h 11.43358 c 8.83649,0 11.49256,-0.0731 11.69339,-0.32204 0.14284,-0.17714 0.51006,-1.94521 0.81594,-3.92905 0.30585,-1.98387 0.60363,-3.8389 0.66172,-4.12231 0.0582,-0.2834 0.40621,-2.48625 0.77365,-4.89521 0.36744,-2.40895 0.82921,-5.42338 1.02617,-6.69872 0.19695,-1.27532 0.54012,-3.53613 0.76262,-5.02403 0.22249,-1.48789 0.46771,-3.00975 0.54492,-3.3819 0.0903,-0.43534 -0.009,-0.82582 -0.27795,-1.09496 -0.37538,-0.37541 -1.80665,-0.41836 -13.9435,-0.41836 h -13.52517 l 0.10168,-11.01423 c 0.11004,-11.91136 0.13555,-12.150795 1.61733,-15.179453 0.99934,-2.042631 3.14511,-4.232592 5.20404,-5.31128 3.20243,-1.677763 3.93893,-1.78694 12.94976,-1.919618 4.46348,-0.06573 8.31847,-0.228154 8.56662,-0.360952 0.42016,-0.224873 0.45117,-1.088883 0.45117,-12.567714 0,-9.683989 -0.0705,-12.384762 -0.32892,-12.59923 -0.37981,-0.315237 -3.56357,-0.845163 -9.07505,-1.510519 -3.00718,-0.36303 -5.72247,-0.465276 -12.23803,-0.460836 -9.32401,0.0058 -10.47756,0.152347 -16.11969,2.040328 -13.59834,4.55028 -21.84233,15.908572 -23.29038,32.08864 -0.14586,1.629597 -0.26558,8.325085 -0.26605,14.878874 l -8.8e-4,11.91599 -12.302456,0.004 c -7.299264,0.003 -12.459619,0.10329 -12.688915,0.24815 -0.334459,0.21135 -0.395992,2.153 -0.457262,14.42907 -0.04807,9.63 0.01691,14.34873 0.202298,14.69514 0.266434,0.49784 0.577607,0.51028 12.759713,0.51028 h 12.486622 v 34.65298 34.65298 l -0.57969,-0.0277 c -0.31885,-0.0152 -1.10144,-0.13437 -1.73909,-0.26493 z"
         id="path828"
         inkscape:connector-curvature="0" />
    </g>
  </g>
</svg>
