<?xml version="1.0" encoding="UTF-8" standalone="no"?>
<!-- Created with Inkscape (http://www.inkscape.org/) -->

<svg
   xmlns:dc="http://purl.org/dc/elements/1.1/"
   xmlns:cc="http://creativecommons.org/ns#"
   xmlns:rdf="http://www.w3.org/1999/02/22-rdf-syntax-ns#"
   xmlns:svg="http://www.w3.org/2000/svg"
   xmlns="http://www.w3.org/2000/svg"
   xmlns:sodipodi="http://sodipodi.sourceforge.net/DTD/sodipodi-0.dtd"
   xmlns:inkscape="http://www.inkscape.org/namespaces/inkscape"
   width="200mm"
   height="200mm"
   viewBox="0 0 200 200"
   version="1.1"
   id="svg1420"
   inkscape:version="0.92.2 (5c3e80d, 2017-08-06)"
   sodipodi:docname="Icono-Instragram.svg"
   inkscape:export-filename="C:\Users\EQUIPO\Pictures\Inkscape\Icono-Instragram.svg.png"
   inkscape:export-xdpi="254"
   inkscape:export-ydpi="254">
  <defs
     id="defs1414" />
  <sodipodi:namedview
     id="base"
     pagecolor="#ffffff"
     bordercolor="#666666"
     borderopacity="1.0"
     inkscape:pageopacity="0.0"
     inkscape:pageshadow="2"
     inkscape:zoom="0.51914344"
     inkscape:cx="281.80247"
     inkscape:cy="355.80359"
     inkscape:document-units="mm"
     inkscape:current-layer="layer1"
     showgrid="false"
     inkscape:window-width="1366"
     inkscape:window-height="716"
     inkscape:window-x="-8"
     inkscape:window-y="-8"
     inkscape:window-maximized="1" />
  <metadata
     id="metadata1417">
    <rdf:RDF>
      <cc:Work
         rdf:about="">
        <dc:format>image/svg+xml</dc:format>
        <dc:type
           rdf:resource="http://purl.org/dc/dcmitype/StillImage" />
        <dc:title></dc:title>
      </cc:Work>
    </rdf:RDF>
  </metadata>
  <g
     inkscape:label="Capa 1"
     inkscape:groupmode="layer"
     id="layer1"
     transform="translate(0,-97)">
    <g
       id="g2499"
       style="fill:#1a1a1a;fill-opacity:1"
       transform="matrix(1.18812,0,0,1.18812,249.47811,-31.667639)">
      <path
         style="fill:#ffffff;fill-opacity:1;stroke-width:0.45321947"
         d="m -165.79443,272.91304 c -10.54739,-1.20676 -21.66144,-6.76914 -28.52037,-14.2739 -5.31033,-5.81034 -9.60279,-13.50174 -11.39065,-20.41019 -1.65164,-6.38208 -1.85765,-12.56087 -1.65585,-49.66246 0.21272,-39.10829 0.13451,-37.97174 3.16855,-46.04926 6.13405,-16.33067 20.863,-27.83186 38.38643,-29.97428 5.17054,-0.63215 75.07309,-0.63215 80.24363,0 19.38442,2.36994 35.16073,16.23706 39.97278,35.13542 l 1.03169,4.05175 v 41.69619 41.69619 l -1.24702,4.07898 c -5.45179,17.83267 -19.3843,30.46847 -36.99609,33.55285 -3.15569,0.55266 -10.21107,0.65527 -41.69619,0.60642 -20.84377,-0.0323 -39.42738,-0.23381 -41.29691,-0.44771 z m 74.44084,-20.22919 c 12.76624,-3.56785 22.00452,-12.96027 25.25707,-25.67849 0.87438,-3.41901 0.91682,-4.95677 0.91682,-33.22216 0,-33.76455 0.0562,-33.13611 -3.64074,-40.69342 -4.55449,-9.31025 -12.51536,-15.7067 -22.83179,-18.34501 -3.42169,-0.87507 -4.95509,-0.91682 -33.67066,-0.91682 -34.55938,0 -34.0721,-0.0432 -41.81312,3.70533 -4.16537,2.01703 -5.24055,2.79782 -8.859,6.43336 -3.30164,3.31723 -4.53984,4.9587 -6.24425,8.27785 -3.97712,7.74508 -3.94437,7.39888 -3.939,41.63504 0.005,32.35061 0.0431,32.9426 2.48791,38.7789 4.40166,10.50757 14.23298,18.48198 25.63473,20.79292 1.10297,0.22356 15.77195,0.36316 32.59773,0.31024 29.83612,-0.0939 30.67912,-0.12049 34.1043,-1.07774 z m -48.38072,-10.07429 c -12.53545,-0.24389 -15.90975,-0.44438 -18.09186,-1.07495 -6.5343,-1.88823 -11.5775,-5.90242 -14.20584,-11.3073 -2.97232,-6.11221 -2.96798,-6.0653 -3.16799,-34.30829 -0.1911,-26.98529 0.028,-31.50615 1.78641,-36.86456 2.55544,-7.78712 8.21574,-12.49392 17.02241,-14.15493 3.05719,-0.57661 8.15627,-0.66494 31.90236,-0.5526 l 28.26358,0.13371 3.50971,1.19633 c 6.24387,2.12831 10.36278,5.52267 12.97081,10.68915 2.99497,5.933 2.93685,5.26779 3.11686,35.67665 0.18273,30.86707 0.10099,31.96953 -2.83392,38.22137 -2.71433,5.78197 -7.68793,9.68118 -14.95058,11.72098 -3.19966,0.89866 -19.60821,1.12474 -45.32195,0.62444 z m 21.2517,-19.03146 c 16.03171,-4.10022 26.09755,-20.27494 22.7127,-36.49686 -0.36409,-1.74489 -1.60866,-5.09038 -2.76572,-7.43442 -3.58383,-7.26031 -10.42444,-13.15396 -18.08448,-15.58101 -4.31924,-1.36853 -14.53066,-1.45719 -18.35539,-0.15937 -9.21392,3.12648 -16.11503,9.37298 -19.62319,17.7618 -2.34372,5.60438 -2.96003,13.46516 -1.50818,19.23619 2.16559,8.60814 8.58027,16.64906 16.23926,20.35623 2.15143,1.04135 5.20303,2.17366 6.78131,2.51625 4.31796,0.93726 10.49026,0.85323 14.60369,-0.19881 z m -13.92475,-10.92336 c -9.42273,-3.24136 -15.17011,-12.66304 -13.53639,-22.19018 2.27869,-13.28829 16.45515,-20.80635 28.49413,-15.11099 3.18812,1.50821 7.33413,5.3712 8.94882,8.33791 6.29772,11.57097 0.31055,25.94561 -12.19829,29.28702 -3.35968,0.89744 -8.57764,0.75316 -11.70827,-0.32376 z m 41.52201,-44.5529 c 4.98624,-2.13347 6.08676,-8.22425 2.19007,-12.12093 -4.21579,-4.2158 -11.50345,-1.61325 -12.17538,4.34804 -0.65141,5.77934 4.774,10.00266 9.98531,7.77289 z"
         id="path2492"
         inkscape:connector-curvature="0" />
    </g>
  </g>
</svg>
