<?xml version="1.0" encoding="UTF-8" standalone="no"?>
<!-- Created with Inkscape (http://www.inkscape.org/) -->

<svg
   xmlns:dc="http://purl.org/dc/elements/1.1/"
   xmlns:cc="http://creativecommons.org/ns#"
   xmlns:rdf="http://www.w3.org/1999/02/22-rdf-syntax-ns#"
   xmlns:svg="http://www.w3.org/2000/svg"
   xmlns="http://www.w3.org/2000/svg"
   xmlns:sodipodi="http://sodipodi.sourceforge.net/DTD/sodipodi-0.dtd"
   xmlns:inkscape="http://www.inkscape.org/namespaces/inkscape"
   width="200mm"
   height="200mm"
   viewBox="0 0 200 200"
   version="1.1"
   id="svg847"
   inkscape:version="0.92.2 (5c3e80d, 2017-08-06)"
   sodipodi:docname="Icono-Pinterest.svg">
  <defs
     id="defs841" />
  <sodipodi:namedview
     id="base"
     pagecolor="#ffffff"
     bordercolor="#666666"
     borderopacity="1.0"
     inkscape:pageopacity="0.0"
     inkscape:pageshadow="2"
     inkscape:zoom="1.0889845"
     inkscape:cx="6.4583081"
     inkscape:cy="293.60662"
     inkscape:document-units="mm"
     inkscape:current-layer="layer1"
     showgrid="false"
     inkscape:window-width="1366"
     inkscape:window-height="716"
     inkscape:window-x="-8"
     inkscape:window-y="-8"
     inkscape:window-maximized="1" />
  <metadata
     id="metadata844">
    <rdf:RDF>
      <cc:Work
         rdf:about="">
        <dc:format>image/svg+xml</dc:format>
        <dc:type
           rdf:resource="http://purl.org/dc/dcmitype/StillImage" />
        <dc:title />
      </cc:Work>
    </rdf:RDF>
  </metadata>
  <g
     inkscape:label="Capa 1"
     inkscape:groupmode="layer"
     id="layer1"
     transform="translate(0,-97)">
    <path
       inkscape:connector-curvature="0"
       id="path1405"
       d="m 93.27384,294.69336 c -1.389178,-0.0611 -2.525777,-0.2305 -2.525777,-0.37646 0,-0.14597 -0.998046,-0.35816 -2.217879,-0.47153 -4.64876,-0.43206 -14.855116,-2.55919 -15.235927,-3.17535 -0.101563,-0.16433 0.783221,-1.9845 1.96619,-4.04481 2.675018,-4.65893 5.139103,-10.08065 6.517329,-14.3401 0.579993,-1.79249 2.421574,-8.68541 4.092399,-15.31761 1.670824,-6.63219 3.070762,-12.10519 3.110973,-12.1622 0.04021,-0.057 1.224167,1.05682 2.63102,2.47517 3.769814,3.80062 8.740512,6.46669 14.524942,7.79054 3.26113,0.74636 11.08594,0.73346 15.22447,-0.0251 22.40565,-4.10674 38.94773,-23.59509 43.34911,-51.06989 3.07309,-19.18328 0.7065,-32.54253 -8.0831,-45.62842 -9.58572,-14.27118 -25.2517,-23.53825 -43.77755,-25.89623 -5.31666,-0.67672 -17.077072,-0.50315 -22.427883,0.33099 -7.949079,1.23919 -14.719109,3.30742 -21.368124,6.52793 -18.174628,8.80303 -30.899553,24.89928 -34.771477,43.98381 -0.622848,3.06998 -0.729564,4.61679 -0.720784,10.44754 0.01106,7.34078 0.350239,10.07436 1.941063,15.64351 0.941541,3.29613 3.127445,8.07102 4.96916,10.8546 1.790679,2.70646 5.401841,6.38174 7.906335,8.04672 5.563051,3.69832 8.757578,4.06265 10.253717,1.16943 0.581743,-1.12496 2.784428,-9.78324 2.784428,-10.94498 0,-1.11374 -0.615073,-2.25857 -2.659886,-4.95089 -6.48229,-8.53491 -7.263788,-21.95552 -2.064992,-35.46191 3.536617,-9.18807 10.616193,-17.37611 19.338941,-22.36688 4.740177,-2.71212 11.711725,-5.03437 17.429837,-5.80594 3.64368,-0.49167 12.234395,-0.42123 15.864355,0.13005 16.01041,2.43153 26.97461,11.7772 30.6053,26.08734 2.61724,10.3157 1.15855,26.00877 -3.60491,38.78286 -1.68944,4.53051 -2.81475,6.79113 -5.10434,10.25404 -3.80425,5.75375 -8.69712,9.87516 -13.80454,11.62799 -2.40092,0.82398 -3.16525,0.93086 -6.62492,0.92638 -3.24609,-0.004 -4.24328,-0.12939 -5.86632,-0.73639 -5.986349,-2.23885 -9.614245,-7.36967 -9.614245,-13.59709 0,-2.81107 0.604397,-5.25996 4.415294,-17.88989 3.440591,-11.40268 4.433511,-15.90219 4.467011,-20.24252 0.0697,-9.02772 -4.460645,-14.73991 -12.205098,-15.38919 -9.387324,-0.78699 -17.755205,7.15641 -19.996514,18.98218 -1.128252,5.95297 -0.48311,14.03778 1.5976,20.02086 l 0.817922,2.35194 -6.513491,27.58393 c -3.582419,15.17116 -6.730054,29.05435 -6.994745,30.85153 -0.264689,1.79718 -0.571895,6.1641 -0.682681,9.70426 -0.117707,3.76133 -0.331645,6.43665 -0.51472,6.43665 -0.766596,0 -9.229392,-4.64484 -13.094817,-7.18717 -5.985984,-3.93704 -10.400375,-7.53754 -15.52767,-12.66483 -7.75754,-7.75754 -13.627138,-15.93305 -18.388116,-25.61199 -5.0546255,-10.27592 -8.1667629,-20.53779 -9.3402365,-30.79817 -0.2152556,-1.88212 -0.5363439,-3.51965 -0.7135302,-3.639 -0.4349839,-0.29296 -0.4359743,-17.19702 -0.00101,-17.49089 0.1766225,-0.11935 0.4970912,-1.74891 0.7121528,-3.62126 1.1811103,-10.28286 4.3283269,-20.64982 9.3634499,-30.84325 11.977971,-24.24899 33.24056,-42.16648 59.45985,-50.10542 4.589672,-1.38971 10.793554,-2.6883 15.335352,-3.20999 1.872349,-0.21505 3.501915,-0.53552 3.621251,-0.712149 0.293261,-0.43403 17.197661,-0.43403 17.490901,0 0.11935,0.176629 1.7489,0.497099 3.62126,0.712149 13.95106,1.60246 29.13594,7.24208 41.25419,15.3217 5.94399,3.96305 9.31426,6.65068 13.96167,11.13376 14.67271,14.15391 24.38112,32.22159 28.19452,52.47096 0.35445,1.88209 0.749,4.52194 0.8768,5.86631 0.12778,1.34436 0.39303,2.54775 0.58943,2.67419 0.541,0.34826 0.49635,17.923 -0.046,18.10378 -0.22244,0.0741 -0.40311,0.66989 -0.40315,1.32935 -1.1e-4,2.0915 -1.25046,8.95356 -2.58346,14.17832 -7.88447,30.90371 -30.98272,56.19203 -61.30776,67.12066 -6.83166,2.46202 -18.55117,5.12031 -22.57466,5.12051 -0.68275,3e-5 -1.16441,0.1246 -1.07034,0.27682 0.33665,0.54469 -8.25271,0.79315 -15.857567,0.45871 z"
       style="fill:#ffffff;stroke-width:0.32590652" />
  </g>
</svg>
