<?xml version="1.0" encoding="UTF-8" standalone="no"?>
<!-- Created with Inkscape (http://www.inkscape.org/) -->

<svg
   xmlns:dc="http://purl.org/dc/elements/1.1/"
   xmlns:cc="http://creativecommons.org/ns#"
   xmlns:rdf="http://www.w3.org/1999/02/22-rdf-syntax-ns#"
   xmlns:svg="http://www.w3.org/2000/svg"
   xmlns="http://www.w3.org/2000/svg"
   xmlns:sodipodi="http://sodipodi.sourceforge.net/DTD/sodipodi-0.dtd"
   xmlns:inkscape="http://www.inkscape.org/namespaces/inkscape"
   width="6.1525273mm"
   height="6.1559753mm"
   viewBox="0 0 6.1525273 6.1559753"
   version="1.1"
   id="svg1736"
   inkscape:version="0.92.2 (5c3e80d, 2017-08-06)"
   sodipodi:docname="tag_offers_icon_(white).svg">
  <defs
     id="defs1730" />
  <sodipodi:namedview
     id="base"
     pagecolor="#ffffff"
     bordercolor="#666666"
     borderopacity="1.0"
     inkscape:pageopacity="0.0"
     inkscape:pageshadow="2"
     inkscape:zoom="24.640906"
     inkscape:cx="14.95909"
     inkscape:cy="14.153263"
     inkscape:document-units="mm"
     inkscape:current-layer="layer1"
     showgrid="false"
     inkscape:window-width="1366"
     inkscape:window-height="716"
     inkscape:window-x="-8"
     inkscape:window-y="-8"
     inkscape:window-maximized="1" />
  <metadata
     id="metadata1733">
    <rdf:RDF>
      <cc:Work
         rdf:about="">
        <dc:format>image/svg+xml</dc:format>
        <dc:type
           rdf:resource="http://purl.org/dc/dcmitype/StillImage" />
        <dc:title />
      </cc:Work>
    </rdf:RDF>
  </metadata>
  <g
     inkscape:label="Capa 1"
     inkscape:groupmode="layer"
     id="layer1"
     transform="translate(-74.044954,-147.60792)">
    <path
       style="fill:#ffffff;fill-opacity:1;stroke-width:0.02677794;stroke:none"
       d="m 76.863865,153.71517 c -0.07345,-0.034 -0.52366,-0.46753 -1.435631,-1.38395 -1.230546,-1.23623 -1.33101,-1.344 -1.362533,-1.4622 -0.06256,-0.23441 -0.01687,-0.30423 0.61194,-0.93692 0.303756,-0.30563 0.572615,-0.55562 0.597473,-0.55562 0.05599,0 0.129304,0.0703 0.129304,0.12452 0,0.0223 -0.247034,0.289 -0.548951,0.59287 -0.540928,0.54449 -0.548952,0.55421 -0.548952,0.66609 v 0.11363 l 1.311798,1.31342 1.311797,1.31355 h 0.119945 c 0.11281,0 0.132232,-0.0129 0.328344,-0.20079 0.114568,-0.11012 0.222645,-0.20067 0.239995,-0.20067 0.04662,0 0.115621,0.0785 0.115621,0.1298 0,0.0656 -0.397553,0.44772 -0.518751,0.49728 -0.131437,0.0539 -0.216941,0.0504 -0.351528,-0.0129 z m 0.9149,-0.66129 c -0.0704,-0.0703 0.01453,-0.16798 1.009224,-1.15926 0.564907,-0.56288 1.064986,-1.07281 1.111305,-1.13291 l 0.08423,-0.11011 -7.1e-5,-1.28719 c -2.3e-5,-1.17168 -0.0047,-1.2955 -0.04698,-1.3809 -0.03198,-0.0633 -0.07673,-0.10426 -0.14055,-0.12593 -0.100276,-0.0351 -2.458714,-0.0504 -2.620444,-0.0176 -0.05787,0.0129 -0.168606,0.10074 -0.364191,0.29438 -0.154549,0.15276 -0.298473,0.27799 -0.319875,0.27799 -0.05119,0 -0.123072,-0.0726 -0.123072,-0.12593 0,-0.0492 0.355967,-0.42348 0.544664,-0.57425 l 0.129562,-0.10425 h 1.406486 1.406497 l 0.106602,0.0597 c 0.05963,0.034 0.135079,0.10894 0.171019,0.16962 l 0.06431,0.10895 -0.0023,1.39004 c -0.0012,0.76448 -0.01054,1.41745 -0.02015,1.45083 -0.0094,0.034 -0.517452,0.56042 -1.128631,1.17145 -0.890721,0.89042 -1.124951,1.11077 -1.180455,1.11077 -0.03819,0 -0.07731,-0.0129 -0.08716,-0.0176 z m -0.679908,-1.14368 c -0.0335,-0.041 -0.06595,-0.16892 -0.09782,-0.38154 -0.05506,-0.36666 -0.09629,-0.63434 -0.18763,-1.21491 -0.108945,-0.69279 -0.106485,-0.63574 -0.03163,-0.71048 0.07392,-0.0738 0.138617,-0.082 0.210544,-0.0281 0.05342,0.0398 0.05178,0.0328 0.310304,1.67552 0.09582,0.60868 0.095,0.57986 0.01921,0.65565 -0.08434,0.0844 -0.158579,0.0855 -0.223032,0 z m -1.185621,-0.59486 c -0.122545,-0.0515 -0.288703,-0.21508 -0.336744,-0.32894 -0.147216,-0.34839 0.116676,-0.72431 0.487099,-0.69373 0.172929,0.0152 0.328216,0.11011 0.431842,0.26685 0.06209,0.0937 0.07392,0.14011 0.07392,0.28994 0,0.23007 -0.0861,0.36865 -0.281369,0.45253 -0.152769,0.0668 -0.245922,0.0691 -0.374699,0.0129 z m 0.26955,-0.33316 c 0.125661,-0.0668 -0.0094,-0.34722 -0.168407,-0.34722 -0.220748,0 -0.129855,0.31325 0.108124,0.37287 0.0047,0 0.03163,-0.0129 0.0601,-0.0258 z m 1.665211,0.18556 c -0.279835,-0.13847 -0.405004,-0.46448 -0.2757,-0.71787 0.109296,-0.21449 0.346514,-0.32859 0.562224,-0.27036 0.142858,0.0387 0.361837,0.2371 0.404817,0.36748 0.145189,0.43976 -0.281944,0.82341 -0.691341,0.62075 z m 0.325791,-0.30798 c 0.02648,-0.0129 0.04229,-0.0492 0.04229,-0.10308 0,-0.12336 -0.122931,-0.23664 -0.244492,-0.22492 -0.08024,0.0129 -0.09114,0.0199 -0.09864,0.0961 -0.01441,0.15053 0.160265,0.28489 0.300781,0.23101 z m -2.710411,-1.54221 c -0.07509,-0.075 -0.02765,-0.14713 0.336416,-0.51051 0.363195,-0.36256 0.435403,-0.41001 0.509755,-0.33562 0.07029,0.0703 0.02109,0.14303 -0.339778,0.50501 -0.362703,0.36409 -0.434888,0.41258 -0.506393,0.34112 z m 3.274931,-0.0129 c -0.118128,-0.0633 -0.173714,-0.1182 -0.230459,-0.2289 -0.08715,-0.1708 -0.0567,-0.42723 0.05494,-0.46249 0.08352,-0.0258 0.135338,0.0445 0.135338,0.1838 0,0.15147 0.04053,0.24296 0.124747,0.28138 0.147766,0.0656 0.316267,0.0164 0.369533,-0.11011 0.0697,-0.1667 -0.02191,-0.32637 -0.218991,-0.38166 -0.117226,-0.0328 -0.167329,-0.0996 -0.12436,-0.16728 0.02237,-0.0351 0.0649,-0.0469 0.166064,-0.0457 0.238565,0 0.432767,0.21391 0.432861,0.47256 1.17e-4,0.30434 -0.200153,0.50525 -0.501191,0.50279 -0.0704,0 -0.164202,-0.0211 -0.208389,-0.0434 z"
       id="path3738-9"
       inkscape:connector-curvature="0" />
  </g>
</svg>
