<?xml version="1.0" encoding="UTF-8" standalone="no"?>
<!-- Created with Inkscape (http://www.inkscape.org/) -->

<svg
   xmlns:dc="http://purl.org/dc/elements/1.1/"
   xmlns:cc="http://creativecommons.org/ns#"
   xmlns:rdf="http://www.w3.org/1999/02/22-rdf-syntax-ns#"
   xmlns:svg="http://www.w3.org/2000/svg"
   xmlns="http://www.w3.org/2000/svg"
   xmlns:sodipodi="http://sodipodi.sourceforge.net/DTD/sodipodi-0.dtd"
   xmlns:inkscape="http://www.inkscape.org/namespaces/inkscape"
   width="959.46185"
   height="959.46185"
   viewBox="0 0 253.85761 253.85762"
   version="1.1"
   id="svg8"
   inkscape:version="0.92.2 (5c3e80d, 2017-08-06)"
   sodipodi:docname="dshopping-[favicon].svg">
  <defs
     id="defs2" />
  <sodipodi:namedview
     id="base"
     pagecolor="#ffffff"
     bordercolor="#666666"
     borderopacity="1.0"
     inkscape:pageopacity="0.0"
     inkscape:pageshadow="2"
     inkscape:zoom="0.24023677"
     inkscape:cx="44.546741"
     inkscape:cy="602.48293"
     inkscape:document-units="px"
     inkscape:current-layer="layer1"
     showgrid="false"
     units="px"
     inkscape:pagecheckerboard="true"
     showborder="false"
     inkscape:window-width="1366"
     inkscape:window-height="706"
     inkscape:window-x="-8"
     inkscape:window-y="-8"
     inkscape:window-maximized="1" />
  <metadata
     id="metadata5">
    <rdf:RDF>
      <cc:Work
         rdf:about="">
        <dc:format>image/svg+xml</dc:format>
        <dc:type
           rdf:resource="http://purl.org/dc/dcmitype/StillImage" />
        <dc:title></dc:title>
      </cc:Work>
    </rdf:RDF>
  </metadata>
  <g
     inkscape:label="Capa 1"
     inkscape:groupmode="layer"
     id="layer1"
     transform="translate(118.45136,102.0192)">
    <g
       id="g828"
       inkscape:export-xdpi="6.4035897"
       inkscape:export-ydpi="6.4035897">
      <rect
         transform="rotate(5.0973418)"
         ry="26.432257"
         y="-95.004608"
         x="-108.4054"
         height="238.125"
         width="238.125"
         id="rect823"
         style="opacity:0.98999999;fill:#ff7800;fill-opacity:1;stroke:none;stroke-width:0.91171551;stroke-linecap:round;stroke-linejoin:round;stroke-miterlimit:4;stroke-dasharray:none;stroke-dashoffset:0;stroke-opacity:1;paint-order:normal" />
      <g
         inkscape:label="Capa 1"
         id="layer1-8"
         transform="translate(-126.2789,-15.760824)">
        <path
           style="fill:#ffffff;fill-opacity:1;stroke:none;stroke-width:1.96903467;stroke-opacity:1"
           d="m 72.910158,125.72257 c -0.668183,-0.23124 -1.843884,-1.09836 -2.609165,-1.92362 -1.63119,-1.73027 -2.29421,-4.1321 -1.861226,-6.74045 0.151496,-0.905 0.629113,-4.84034 1.060681,-8.74359 0.435954,-3.90227 2.799854,-24.621345 5.259356,-46.0397 2.455814,-21.418363 4.826391,-42.135842 5.26717,-46.038697 1.596504,-14.1562483 1.765743,-14.8116743 4.39253,-17.11304134 2.117198,-1.85385096 3.514842,-2.17139796 9.196138,-2.10421996 2.813304,0.01993 5.290814,0.01993 5.507734,-0.03987 0.29721,-0.07974 0.3016,-1.014635 0.0439,-3.368029 -0.94147,-8.9104437 0.68553,-16.9587477 4.689274,-23.3710787 6.24162,-9.973718 16.6779,-16.791109 29.04678,-18.970877 3.88796,-0.687721 12.66911,-0.350834 16.55967,0.623931 10.22935,2.579247 19.08815,8.505386 24.70739,16.532962 6.421,9.171978 7.91648,17.872719 5.28192,30.72947466 l -0.19535,0.914966 5.52748,0.356816 c 4.2461,0.287048 5.84962,0.49436 6.91473,1.00865404 2.58728,1.227927 4.65522,3.977607 5.01444,6.684429 0.10765,0.665792 0.44254,8.4130923 0.78739,17.2214813 0.34486,8.808381 1.15617,29.567129 1.80262,46.129994 0.64865,16.563663 1.38182,35.172535 1.63338,41.354835 0.25157,6.1819 0.34068,11.66092 0.19536,12.17382 -0.76367,2.69048 -2.66949,4.65217 -5.23571,5.3951 -1.70515,0.49835 -121.239094,-4.05535 -122.994452,-4.66871 z M 110.21553,25.611613 c 4.38037,-2.056377 5.70166,-7.780591 2.66731,-11.550689 -1.00227,-1.243871 -3.03372,-2.58283 -3.3912,-2.236379 -0.0877,0.0598 0.0658,1.423279 0.31675,3.002242 0.59005,3.781454 0.21689,5.227462 -1.61822,6.105152 -1.07165,0.516284 -1.55325,0.560142 -2.64302,0.247181 -1.79624,-0.514294 -2.658,-1.995585 -3.10964,-5.284673 -0.19536,-1.457165 -0.46865,-2.6536 -0.60739,-2.658185 -1.00447,-0.03987 -2.591174,3.104702 -2.672744,5.289257 -0.21688,5.583481 5.907114,9.503278 11.057574,7.086494 z m 63.23077,2.510871 c 3.70292,-1.497035 5.6316,-6.106343 4.09512,-9.791921 -0.32313,-0.777419 -0.83942,-1.634578 -1.15179,-1.905679 -0.68333,-0.602002 -0.69847,-0.574096 -1.58354,3.021584 -0.50752,2.060758 -0.85476,2.769009 -1.72886,3.49859 -1.25604,1.048527 -2.69595,1.132248 -4.26823,0.257147 -1.75278,-0.978753 -2.03692,-3.085965 -0.94367,-6.957325 0.31456,-1.128252 0.51409,-2.11498 0.43595,-2.203887 -0.35801,-0.388713 -2.45517,0.769451 -3.57147,1.959503 -4.42983,4.728711 -1.21258,12.424591 5.28671,12.643258 1.14978,0.05978 2.57836,-0.199335 3.42894,-0.520272 z m -1.04334,-32.2332843 c 1.33418,-6.8839667 1.08679,-11.5281627 -0.90679,-16.7970867 -4.02246,-10.647484 -14.88718,-18.849676 -27.22049,-20.546653 -14.46676,-1.993587 -29.59387,5.791593 -35.37948,18.202229 -1.42089,3.049884 -2.4402,7.054801 -2.55148,10.03691 -0.0877,2.019501 0.51849,9.0938357 0.85895,10.2282737 0.12958,0.348843 6.74292,0.671772 32.29632,1.556836 l 32.16444,1.11430396 z"
           id="path383-2-91-0"
           inkscape:connector-curvature="0"
           sodipodi:nodetypes="cccccccccccccccccccscccccccccccccccccccccccccccccccccccccc"
           inkscape:export-xdpi="8292.3721"
           inkscape:export-ydpi="8292.3721" />
      </g>
    </g>
  </g>
</svg>
